<?xml version="1.0" standalone="yes"?>
<svg xmlns="http://www.w3.org/2000/svg" width="740" height="740">
<path style="fill:#feffff; stroke:none;" d="M0 0L0 740L740 740L740 0L0 0z"/>
<path style="fill:#4c6576; stroke:none;" d="M419 119L419 121L421 119L419 119z"/>
<path style="fill:#1276bb; stroke:none;" d="M501 193L476 174L518 170C513.874 163.755 502.561 162.089 496 158.974C477.509 150.198 461.17 138.408 443 129.414C438.536 127.204 424.145 117.718 419.585 121.647C413.659 126.752 411.326 144.556 409.025 152C408.246 154.524 406.321 158.93 408.067 161.4C411.007 165.56 426.903 166.387 432 168.453C454.863 177.722 475.48 190.969 501 193z"/>
<path style="fill:#10adea; stroke:none;" d="M423 120L424 121L423 120M418 121L419 122L418 121z"/>
<path style="fill:#4c6576; stroke:none;" d="M425 121L426 122L425 121z"/>
<path style="fill:#10adea; stroke:none;" d="M428 122L429 123L428 122M430 123L431 124L430 123M417 124L418 125L417 124z"/>
<path style="fill:#4c6576; stroke:none;" d="M432 124L433 125L432 124M417.333 125.667L417.667 126.333L417.333 125.667M434 125L435 126L434 125z"/>
<path style="fill:#10adea; stroke:none;" d="M435 125L436 126L435 125M437 126L438 127L437 126M416 127L417 128L416 127z"/>
<path style="fill:#4c6576; stroke:none;" d="M438.667 127.333L439.333 127.667L438.667 127.333M441 128L442 129L441 128M443 129L444 130L443 129M444.667 130.333L445.333 130.667L444.667 130.333M415.333 131.667L415.667 132.333L415.333 131.667M447 131L448 132L447 131z"/>
<path style="fill:#10adea; stroke:none;" d="M449 132L450 133L449 132M451 133L452 134L451 133M414 134L415 135L414 134z"/>
<path style="fill:#4c6576; stroke:none;" d="M452 134L453 135L452 134M453.667 135.333L454.333 135.667L453.667 135.333M455 136L456 137L455 136z"/>
<path style="fill:#10adea; stroke:none;" d="M413 137L414 138L413 137M457 137L458 138L457 137z"/>
<path style="fill:#4c6576; stroke:none;" d="M413 138L414 139L413 138M458 138L459 139L458 138z"/>
<path style="fill:#10adea; stroke:none;" d="M412 140L413 141L412 140M462 141L463 142L462 141M411 143L412 144L411 143z"/>
<path style="fill:#4c6576; stroke:none;" d="M464 143L465 144L464 143z"/>
<path style="fill:#10adea; stroke:none;" d="M465 143L466 144L465 143z"/>
<path style="fill:#4c6576; stroke:none;" d="M411 144L412 145L411 144M468 145L469 146L468 145z"/>
<path style="fill:#10adea; stroke:none;" d="M410 146L411 147L410 146M470 146L471 147L470 146z"/>
<path style="fill:#4c6576; stroke:none;" d="M410 147L411 148L410 147z"/>
<path style="fill:#10adea; stroke:none;" d="M472 147L473 148L472 147M474 148L475 149L474 148M476 149L477 150L476 149M409 150L410 151L409 150M478 150L479 151L478 150M480 151L481 152L480 151M482 152L483 153L482 152M408 153L409 154L408 153z"/>
<path style="fill:#4c6576; stroke:none;" d="M484 153L485 154L484 153z"/>
<path style="fill:#10adea; stroke:none;" d="M486 154L487 155L486 154z"/>
<path style="fill:#4c6576; stroke:none;" d="M488 155L489 156L488 155z"/>
<path style="fill:#10adea; stroke:none;" d="M489 155L490 156L489 155M407 156L408 157L407 156M491 156L492 157L491 156z"/>
<path style="fill:#4c6576; stroke:none;" d="M407 157L408 158L407 157M492 157L493 158L492 157z"/>
<path style="fill:#10adea; stroke:none;" d="M493 157L494 158L493 157M495 158L496 159L495 158M406 159L407 160L406 159z"/>
<path style="fill:#4c6576; stroke:none;" d="M496.667 159.333L497.333 159.667L496.667 159.333M406 160L408 163L406 160M499 160L500 161L499 160z"/>
<path style="fill:#10adea; stroke:none;" d="M500 160L501 161L500 160z"/>
<path style="fill:#4c6576; stroke:none;" d="M501 161L502 162L501 161z"/>
<path style="fill:#10adea; stroke:none;" d="M502 161L503 162L502 161z"/>
<path style="fill:#4c6576; stroke:none;" d="M504 162L505 163L504 162z"/>
<path style="fill:#10adea; stroke:none;" d="M412.667 163.333L413.333 163.667L412.667 163.333M507 163L508 164L507 163M418 164L419 165L418 164z"/>
<path style="fill:#4c6576; stroke:none;" d="M419 164L420 165L419 164z"/>
<path style="fill:#10adea; stroke:none;" d="M509 164L510 165L509 164M422.667 165.333L423.333 165.667L422.667 165.333z"/>
<path style="fill:#4c6576; stroke:none;" d="M511 165L512 166L511 165z"/>
<path style="fill:#10adea; stroke:none;" d="M426 166L427 167L426 166M514 166L515 167L514 166M429 167L430 168L429 167z"/>
<path style="fill:#4c6576; stroke:none;" d="M516 167L517 168L516 167M432 168L433 169L432 168M518 168L518 170L520 170L520 168L518 168M403 169L404 170L403 169z"/>
<path style="fill:#10adea; stroke:none;" d="M434 169L435 170L434 169z"/>
<path style="fill:#0b2f47; stroke:none;" d="M403 170C399.585 193.125 388.469 216.597 381.72 239C366.008 291.156 349.141 342.979 332.975 395C325.917 417.709 313.068 443.312 311 467C322.68 464.219 337.138 466.645 349 467.831C371.77 470.108 394.608 473.963 416 482.45C453.489 497.323 486.058 518 528 518C505.016 396.011 478.723 272.63 405 170L403 170z"/>
<path style="fill:#10adea; stroke:none;" d="M436 170L437 171L436 170M515.667 170.333L516.333 170.667L515.667 170.333M438 171L439 172L438 171M508 171L508 172L511 172L508 171z"/>
<path style="fill:#4c6576; stroke:none;" d="M402.333 172.667L402.667 173.333L402.333 172.667M406 172L407 173L406 172z"/>
<path style="fill:#10adea; stroke:none;" d="M440 172L441 173L440 172z"/>
<path style="fill:#4c6576; stroke:none;" d="M497 172L498 173L497 172z"/>
<path style="fill:#10adea; stroke:none;" d="M498 172L498 173L501 173L498 172z"/>
<path style="fill:#4c6576; stroke:none;" d="M407 173L408 174L407 173z"/>
<path style="fill:#10adea; stroke:none;" d="M477 173L477 174L486 174L477 173z"/>
<path style="fill:#4c6576; stroke:none;" d="M408 174L409 175L408 174M443 174L444 175L443 174z"/>
<path style="fill:#10adea; stroke:none;" d="M476 174L477 175L476 174z"/>
<path style="fill:#4c6576; stroke:none;" d="M401.333 175.667L401.667 176.333L401.333 175.667M409 176L410 177L409 176z"/>
<path style="fill:#10adea; stroke:none;" d="M446 176L447 177L446 176z"/>
<path style="fill:#4c6576; stroke:none;" d="M447 176L448 177L447 176z"/>
<path style="fill:#10adea; stroke:none;" d="M479 176L480 177L479 176z"/>
<path style="fill:#4c6576; stroke:none;" d="M410 177L411 178L410 177z"/>
<path style="fill:#10adea; stroke:none;" d="M448 177L449 178L448 177M480 177L481 178L480 177z"/>
<path style="fill:#4c6576; stroke:none;" d="M400.333 178.667L400.667 179.333L400.333 178.667M411 178L412 179L411 178z"/>
<path style="fill:#10adea; stroke:none;" d="M450 178L451 179L450 178z"/>
<path style="fill:#4c6576; stroke:none;" d="M481 178L482 179L481 178z"/>
<path style="fill:#10adea; stroke:none;" d="M452 179L453 180L452 179z"/>
<path style="fill:#4c6576; stroke:none;" d="M482 179L483 180L482 179z"/>
<path style="fill:#10adea; stroke:none;" d="M483 179L484 180L483 179z"/>
<path style="fill:#4c6576; stroke:none;" d="M412 180L413 181L412 180z"/>
<path style="fill:#10adea; stroke:none;" d="M454 180L455 181L454 180z"/>
<path style="fill:#4c6576; stroke:none;" d="M455 180L456 181L455 180M484 180L485 181L484 180M399.333 181.667L399.667 182.333L399.333 181.667M413 181L414 182L413 181z"/>
<path style="fill:#10adea; stroke:none;" d="M457 181L458 182L457 181M486 181L487 182L486 181M414 182L415 183L414 182z"/>
<path style="fill:#4c6576; stroke:none;" d="M460 182L461 183L460 182z"/>
<path style="fill:#10adea; stroke:none;" d="M487 182L488 183L487 182M462 183L463 184L462 183M489 183L490 184L489 183z"/>
<path style="fill:#4c6576; stroke:none;" d="M398.333 184.667L398.667 185.333L398.333 184.667M415 184L416 185L415 184z"/>
<path style="fill:#10adea; stroke:none;" d="M465 184L466 185L465 184z"/>
<path style="fill:#4c6576; stroke:none;" d="M466 184L467 185L466 184M416 185L417 186L416 185M469 185L470 186L469 185z"/>
<path style="fill:#10adea; stroke:none;" d="M492 185L493 186L492 185z"/>
<path style="fill:#4c6576; stroke:none;" d="M472 186L472 187L475 187L472 186M493 186L494 187L493 186M417 187L418 188L417 187z"/>
<path style="fill:#10adea; stroke:none;" d="M475.667 187.333L476.333 187.667L475.667 187.333z"/>
<path style="fill:#4c6576; stroke:none;" d="M495 187L496 188L495 187M397 188L398 189L397 188M418 188L419 189L418 188z"/>
<path style="fill:#10adea; stroke:none;" d="M479 188L480 189L479 188z"/>
<path style="fill:#4c6576; stroke:none;" d="M480 188L481 189L480 188z"/>
<path style="fill:#10adea; stroke:none;" d="M497 188L498 189L497 188M483 189L484 190L483 189z"/>
<path style="fill:#4c6576; stroke:none;" d="M484 189L485 190L484 189M498 189L499 190L498 189z"/>
<path style="fill:#10adea; stroke:none;" d="M487 190L488 191L487 190z"/>
<path style="fill:#4c6576; stroke:none;" d="M488 190L489 191L488 190z"/>
<path style="fill:#10adea; stroke:none;" d="M500 190L501 191L500 190z"/>
<path style="fill:#4c6576; stroke:none;" d="M396.333 191.667L396.667 192.333L396.333 191.667M420 191L421 192L420 191z"/>
<path style="fill:#10adea; stroke:none;" d="M491 191L492 192L491 191z"/>
<path style="fill:#4c6576; stroke:none;" d="M500 191L507 195L507 194L500 191z"/>
<path style="fill:#10adea; stroke:none;" d="M502 191L503 192L502 191M421 192L422 193L421 192M496 192L497 193L496 192M500 193L501 194L500 193z"/>
<path style="fill:#4c6576; stroke:none;" d="M395.333 194.667L395.667 195.333L395.333 194.667M422 194L423 195L422 194M394.333 197.667L394.667 198.333L394.333 197.667M424 197L425 198L424 197M425 199L426 200L425 199M393.333 200.667L393.667 201.333L393.333 200.667M426 200L427 201L426 200z"/>
<path style="fill:#10adea; stroke:none;" d="M383.333 202.667L383.667 203.333L383.333 202.667z"/>
<path style="fill:#4c6576; stroke:none;" d="M427 202L428 203L427 202M382.333 204.667L382.667 205.333L382.333 204.667M392 204L393 205L392 204M428 204L429 205L428 204M429 205L430 206L429 205z"/>
<path style="fill:#10adea; stroke:none;" d="M381.667 206.333L382.333 206.667L381.667 206.333z"/>
<path style="fill:#4c6576; stroke:none;" d="M381 207L382 208L381 207M391.333 207.667L391.667 208.333L391.333 207.667M430 207L431 208L430 207z"/>
<path style="fill:#10adea; stroke:none;" d="M380 208C354.969 255.573 318.411 294.837 281.961 333.745C271.826 344.562 260.717 354.713 250 364.961C244.406 370.309 237.342 374.834 234 382C229.071 382.841 224.537 387.216 223 392C217.454 392.932 213.151 398.192 209 401.845C199.205 410.464 181.626 420.185 176 432C170.505 432.825 165.442 437.744 162 442L193 450.333L271 462L297 465L305.5 463.667L312.333 441L327.333 391L382 208L380 208z"/>
<path style="fill:#4c6576; stroke:none;" d="M431 209L432 210L431 209z"/>
<path style="fill:#1276bb; stroke:none;" d="M380 210L381 211L380 210z"/>
<path style="fill:#4c6576; stroke:none;" d="M390.333 210.667L390.667 211.333L390.333 210.667M432 210L433 211L432 210M433 212L434 213L433 212M389.333 213.667L389.667 214.333L389.333 213.667M434 214L435 215L434 214z"/>
<path style="fill:#10adea; stroke:none;" d="M435 215L436 216L435 215z"/>
<path style="fill:#4c6576; stroke:none;" d="M388.333 216.667L388.667 217.333L388.333 216.667M436 217L437 218L436 217M437 219L438 220L437 219M387 220L388 221L387 220M438 221L439 222L438 221M386 223L387 224L386 223M439 223L440 224L439 223M440 225L441 226L440 225M385.333 226.667L385.667 227.333L385.333 226.667M441 227L442 228L441 227M442.333 228.667L442.667 229.333L442.333 228.667M384.333 229.667L384.667 230.333L384.333 229.667M443 230L444 231L443 230M383.333 232.667L383.667 233.333L383.333 232.667M444.333 232.667L444.667 233.333L444.333 232.667M445 234L446 235L445 234M382.333 235.667L382.667 236.333L382.333 235.667M446.333 236.667L446.667 237.333L446.333 236.667M447.333 238.667L447.667 239.333L447.333 238.667M381 239L382 240L381 239M448.333 240.667L448.667 241.333L448.333 240.667M380.333 242.667L380.667 243.333L380.333 242.667M449.333 242.667L449.667 243.333L449.333 242.667M379.333 245.667L379.667 246.333L379.333 245.667M450 245L451 246L450 245M451 247L452 248L451 247M378.333 248.667L378.667 249.333L378.333 248.667M452 249L453 250L452 249M377.333 251.667L377.667 252.333L377.333 251.667M453 251L454 252L453 251M454 253L455 254L454 253M376 255L377 256L376 255M455 255L456 256L455 255M456.333 257.667L456.667 258.333L456.333 257.667M375.333 258.667L375.667 259.333L375.333 258.667M457 260L458 261L457 260M374.333 261.667L374.667 262.333L374.333 261.667M458 262L459 263L458 262M373.333 264.667L373.667 265.333L373.333 264.667M459.333 264.667L459.667 265.333L459.333 264.667M372.333 267.667L372.667 268.333L372.333 267.667M460 267L461 268L460 267M461 269L462 270L461 269M371.333 270.667L371.667 271.333L371.333 270.667M462 272L463 273L462 272M370.333 274.667L370.667 275.333L370.333 274.667M463 274L464 275L463 274M464.333 276.667L464.667 277.333L464.333 276.667M369.333 277.667L369.667 278.333L369.333 277.667M465 279L466 280L465 279M368.333 280.667L368.667 281.333L368.333 280.667M466.333 281.667L466.667 282.333L466.333 281.667M367.333 283.667L367.667 284.333L367.333 283.667M467 284L468 285L467 284M366.333 286.667L366.667 287.333L366.333 286.667M468.333 286.667L468.667 287.333L468.333 286.667M469 289L470 290L469 289M365 290L366 291L365 290z"/>
<path style="fill:#1276bb; stroke:none;" d="M322 291L323 292L322 291z"/>
<path style="fill:#4c6576; stroke:none;" d="M470 292L471 293L470 292M364.333 293.667L364.667 294.333L364.333 293.667M471.333 294.667L471.667 295.333L471.333 294.667M363.333 296.667L363.667 297.333L363.333 296.667M472 297L473 298L472 297M362.333 299.667L362.667 300.333L362.333 299.667M473 300L474 301L473 300M361.333 302.667L361.667 303.333L361.333 302.667M474.333 302.667L474.667 303.333L474.333 302.667M475.333 305.667L475.667 306.333L475.333 305.667M360 306L361 307L360 306M476.333 308.667L476.667 309.333L476.333 308.667M359 309L360 310L359 309M477 311L478 312L477 311M358.333 312.667L358.667 313.333L358.333 312.667M478 314L479 315L478 314M357.333 315.667L357.667 316.333L357.333 315.667z"/>
<path style="fill:#10adea; stroke:none;" d="M479 316L480 317L479 316z"/>
<path style="fill:#4c6576; stroke:none;" d="M479 317L480 318L479 317M356.333 318.667L356.667 319.333L356.333 318.667M480.333 319.667L480.667 320.333L480.333 319.667z"/>
<path style="fill:#10adea; stroke:none;" d="M355 321L356 322L355 321z"/>
<path style="fill:#4c6576; stroke:none;" d="M355 322L356 323L355 322M481.333 322.667L481.667 323.333L481.333 322.667M354 325L355 326L354 325M482.333 325.667L482.667 326.333L482.333 325.667M353.333 328.667L353.667 329.333L353.333 328.667M483.333 328.667L483.667 329.333L483.333 328.667M352.333 331.667L352.667 332.333L352.333 331.667M484 332L485 333L484 332M351.333 334.667L351.667 335.333L351.333 334.667M485 335L486 336L485 335z"/>
<path style="fill:#10adea; stroke:none;" d="M350 337L351 338L350 337z"/>
<path style="fill:#4c6576; stroke:none;" d="M350.333 338.667L350.667 339.333L350.333 338.667M486 338L487 339L486 338M349.333 341.667L349.667 342.333L349.333 341.667M487.333 341.667L487.667 342.333L487.333 341.667M348.333 344.667L348.667 345.333L348.333 344.667M488.333 344.667L488.667 345.333L488.333 344.667M347.333 347.667L347.667 348.333L347.333 347.667M489.333 347.667L489.667 348.333L489.333 347.667M346.333 350.667L346.667 351.333L346.333 350.667M490 351L491 352L490 351M345.333 353.667L345.667 354.333L345.333 353.667M491.333 354.667L491.667 355.333L491.333 354.667M344 357L345 358L344 357M492.333 357.667L492.667 358.333L492.333 357.667M343.333 360.667L343.667 361.333L343.333 360.667M493.333 361.667L493.667 362.333L493.333 361.667M342.333 363.667L342.667 364.333L342.333 363.667M494.333 364.667L494.667 365.333L494.333 364.667M341.333 366.667L341.667 367.333L341.333 366.667M495.333 368.667L495.667 369.333L495.333 368.667M340.333 369.667L340.667 370.333L340.333 369.667M496.333 371.667L496.667 372.333L496.333 371.667M339.333 372.667L339.667 373.333L339.333 372.667M497.333 375.667L497.667 376.333L497.333 375.667M338.333 376.667L338.667 377.333L338.333 376.667M498.333 378.667L498.667 379.333L498.333 378.667M337 379L338 380L337 379z"/>
<path style="fill:#1276bb; stroke:none;" d="M233 381L234 382L233 381z"/>
<path style="fill:#4c6576; stroke:none;" d="M336.333 382.667L336.667 383.333L336.333 382.667M499.333 382.667L499.667 383.333L499.333 382.667M335.333 385.667L335.667 386.333L335.333 385.667M500.333 386.667L500.667 387.333L500.333 386.667M334.333 388.667L334.667 389.333L334.333 388.667M501.333 390.667L501.667 391.333L501.333 390.667z"/>
<path style="fill:#1276bb; stroke:none;" d="M222 391L223 392L222 391z"/>
<path style="fill:#4c6576; stroke:none;" d="M333 391L333 394L334 394L333 391M502.333 393.667L502.667 394.333L502.333 393.667M332.333 395.667L332.667 396.333L332.333 395.667M503.333 397.667L503.667 398.333L503.333 397.667M331.333 398.667L331.667 399.333L331.333 398.667M330.333 401.667L330.667 402.333L330.333 401.667M504.333 401.667L504.667 402.333L504.333 401.667M329.333 404.667L329.667 405.333L329.333 404.667M505.333 405.667L505.667 406.333L505.333 405.667M328 408L329 409L328 408M506.333 409.667L506.667 410.333L506.333 409.667M327 411L328 412L327 411M507 413L507 416L508 416L507 413M326.333 414.667L326.667 415.333L326.333 414.667M325.333 417.667L325.667 418.333L325.333 417.667M508.333 418.667L508.667 419.333L508.333 418.667M324.333 420.667L324.667 421.333L324.333 420.667M509.333 422.667L509.667 423.333L509.333 422.667M323.333 423.667L323.667 424.333L323.333 423.667M510.333 426.667L510.667 427.333L510.333 426.667z"/>
<path style="fill:#1276bb; stroke:none;" d="M180 427L181 428L180 427z"/>
<path style="fill:#4c6576; stroke:none;" d="M322 427L323 428L322 427M321.333 430.667L321.667 431.333L321.333 430.667M511 430L511 433L512 433L511 430z"/>
<path style="fill:#1276bb; stroke:none;" d="M175 431L176 432L175 431z"/>
<path style="fill:#4c6576; stroke:none;" d="M320.333 433.667L320.667 434.333L320.333 433.667M512.333 435.667L512.667 436.333L512.333 435.667M319.333 436.667L319.667 437.333L319.333 436.667M318.333 439.667L318.667 440.333L318.333 439.667M513 439L513 442L514 442L513 439z"/>
<path style="fill:#1276bb; stroke:none;" d="M163 441L164 442L163 441z"/>
<path style="fill:#4c6576; stroke:none;" d="M317.333 442.667L317.667 443.333L317.333 442.667M514.333 444.667L514.667 445.333L514.333 444.667M316 446L317 447L316 446M515 448L515 451L516 451L515 448M315 449L316 450L315 449M314.333 452.667L314.667 453.333L314.333 452.667M516 453L516 456L517 456L516 453M313.333 455.667L313.667 456.333L313.333 455.667M312.333 458.667L312.667 459.333L312.333 458.667M517 458L517 461L518 461L517 458M311 462L312 463L311 462M518 463L518 466L519 466L518 463z"/>
<path style="fill:#1276bb; stroke:none;" d="M304 464L305 465L304 464z"/>
<path style="fill:#4c6576; stroke:none;" d="M310.333 465.667L310.667 466.333L310.333 465.667M312 466L312 467L328 467L312 466M339 467L339 468L347 468L339 467z"/>
<path style="fill:#10adea; stroke:none;" d="M351 468L352 469L351 468z"/>
<path style="fill:#4c6576; stroke:none;" d="M352 468L352 469L357 469L352 468M519 468L519 471L520 471L519 468z"/>
<path style="fill:#10adea; stroke:none;" d="M360 469L361 470L360 469z"/>
<path style="fill:#4c6576; stroke:none;" d="M361 469L361 470L365 470L361 469M368 470L368 471L371 471L368 470M374 471L374 472L377 472L374 471M379 472L379 473L382 473L379 472M384 473L384 474L387 474L384 473M520 473L520 476L521 476L520 473M389.667 474.333L390.333 474.667L389.667 474.333M393.667 475.333L394.333 475.667L393.667 475.333M397.667 476.333L398.333 476.667L397.667 476.333M400.667 477.333L401.333 477.667L400.667 477.333M404 478L405 479L404 478M521 478L521 481L522 481L521 478z"/>
<path style="fill:#10adea; stroke:none;" d="M406 479L407 480L406 479z"/>
<path style="fill:#4c6576; stroke:none;" d="M407 479L408 480L407 479M410 480L411 481L410 480M412.667 481.333L413.333 481.667L412.667 481.333M415.667 482.333L416.333 482.667L415.667 482.333M418 483L419 484L418 483M522 483L522 486L523 486L522 483z"/>
<path style="fill:#10adea; stroke:none;" d="M283 484L283 485L288 485L283 484z"/>
<path style="fill:#1276bb; stroke:none;" d="M87 598C95.3032 594.789 102.665 587.616 110 582.566C121.695 574.515 134.409 567.339 147 560.784C192.538 537.078 246.482 522.783 298 525.039C329.911 526.437 360.841 533.128 391 543.695C443.85 562.213 496.635 590 554 590C583.526 590 608.183 586 633 568.975C639.103 564.789 648.199 560.446 652 554C630.392 559.91 612.127 567.72 589.089 567.486C511.028 566.694 446.129 512.773 373 493.015C310.713 476.185 242.939 483.376 185 511.41C156.32 525.287 131.278 543.557 109.656 567C101.553 575.785 90.6837 586.371 87 598z"/>
<path style="fill:#10adea; stroke:none;" d="M320 484L320 485L325 485L320 484z"/>
<path style="fill:#4c6576; stroke:none;" d="M420 484L421 485L420 484z"/>
<path style="fill:#10adea; stroke:none;" d="M273.667 485.333L274.333 485.667L273.667 485.333z"/>
<path style="fill:#4c6576; stroke:none;" d="M275 485L275 486L280 486L275 485M328 485L328 486L333 486L328 485z"/>
<path style="fill:#10adea; stroke:none;" d="M333.667 485.333L334.333 485.667L333.667 485.333z"/>
<path style="fill:#4c6576; stroke:none;" d="M422.667 485.333L423.333 485.667L422.667 485.333z"/>
<path style="fill:#10adea; stroke:none;" d="M265.667 486.333L266.333 486.667L265.667 486.333M340 486L340 487L343 487L340 486M424 486L425 487L424 486z"/>
<path style="fill:#4c6576; stroke:none;" d="M425 486L426 487L425 486z"/>
<path style="fill:#10adea; stroke:none;" d="M259 487L260 488L259 487z"/>
<path style="fill:#4c6576; stroke:none;" d="M260 487L260 488L263 488L260 487M345 487L345 488L348 488L345 487z"/>
<path style="fill:#10adea; stroke:none;" d="M348 487L349 488L348 487z"/>
<path style="fill:#4c6576; stroke:none;" d="M427 487L428 488L427 487z"/>
<path style="fill:#10adea; stroke:none;" d="M253.667 488.333L254.333 488.667L253.667 488.333M353.667 488.333L354.333 488.667L353.667 488.333z"/>
<path style="fill:#4c6576; stroke:none;" d="M429 488L430 489L429 488z"/>
<path style="fill:#10adea; stroke:none;" d="M248.667 489.333L249.333 489.667L248.667 489.333z"/>
<path style="fill:#4c6576; stroke:none;" d="M357 489L358 490L357 489z"/>
<path style="fill:#10adea; stroke:none;" d="M358.667 489.333L359.333 489.667L358.667 489.333z"/>
<path style="fill:#4c6576; stroke:none;" d="M431 489L432 490L431 489M523 489L523 492L524 492L523 489z"/>
<path style="fill:#10adea; stroke:none;" d="M243.667 490.333L244.333 490.667L243.667 490.333z"/>
<path style="fill:#4c6576; stroke:none;" d="M245 490L246 491L245 490M362 490L363 491L362 490z"/>
<path style="fill:#10adea; stroke:none;" d="M363 490L364 491L363 490z"/>
<path style="fill:#4c6576; stroke:none;" d="M433 490L434 491L433 490z"/>
<path style="fill:#10adea; stroke:none;" d="M239.667 491.333L240.333 491.667L239.667 491.333z"/>
<path style="fill:#4c6576; stroke:none;" d="M365.667 491.333L366.333 491.667L365.667 491.333z"/>
<path style="fill:#10adea; stroke:none;" d="M367 491L368 492L367 491z"/>
<path style="fill:#4c6576; stroke:none;" d="M434 491L435 492L434 491z"/>
<path style="fill:#10adea; stroke:none;" d="M235 492L236 493L235 492M371 492L372 493L371 492z"/>
<path style="fill:#4c6576; stroke:none;" d="M436 492L437 493L436 492z"/>
<path style="fill:#10adea; stroke:none;" d="M231 493L232 494L231 493z"/>
<path style="fill:#4c6576; stroke:none;" d="M232 493L233 494L232 493z"/>
<path style="fill:#10adea; stroke:none;" d="M374 493L375 494L374 493z"/>
<path style="fill:#4c6576; stroke:none;" d="M438 493L439 494L438 493z"/>
<path style="fill:#10adea; stroke:none;" d="M228 494L229 495L228 494M378 494L379 495L378 494z"/>
<path style="fill:#4c6576; stroke:none;" d="M440 494L441 495L440 494M524 494L524 498L525 498L524 494z"/>
<path style="fill:#10adea; stroke:none;" d="M224 495L225 496L224 495z"/>
<path style="fill:#4c6576; stroke:none;" d="M225 495L226 496L225 495M380 495L381 496L380 495z"/>
<path style="fill:#10adea; stroke:none;" d="M381 495L382 496L381 495z"/>
<path style="fill:#4c6576; stroke:none;" d="M442 495L443 496L442 495z"/>
<path style="fill:#10adea; stroke:none;" d="M221 496L222 497L221 496M384 496L385 497L384 496z"/>
<path style="fill:#4c6576; stroke:none;" d="M444 496L445 497L444 496z"/>
<path style="fill:#10adea; stroke:none;" d="M218 497L219 498L218 497z"/>
<path style="fill:#4c6576; stroke:none;" d="M219 497L220 498L219 497M386 497L387 498L386 497z"/>
<path style="fill:#10adea; stroke:none;" d="M387 497L388 498L387 497z"/>
<path style="fill:#4c6576; stroke:none;" d="M446 497L447 498L446 497z"/>
<path style="fill:#10adea; stroke:none;" d="M215 498L216 499L215 498z"/>
<path style="fill:#4c6576; stroke:none;" d="M389 498L390 499L389 498z"/>
<path style="fill:#10adea; stroke:none;" d="M390 498L391 499L390 498z"/>
<path style="fill:#4c6576; stroke:none;" d="M448.667 498.333L449.333 498.667L448.667 498.333z"/>
<path style="fill:#10adea; stroke:none;" d="M212 499L213 500L212 499z"/>
<path style="fill:#4c6576; stroke:none;" d="M213 499L214 500L213 499M392 499L393 500L392 499z"/>
<path style="fill:#10adea; stroke:none;" d="M393 499L394 500L393 499M450 499L451 500L450 499z"/>
<path style="fill:#4c6576; stroke:none;" d="M451 499L452 500L451 499z"/>
<path style="fill:#10adea; stroke:none;" d="M209 500L210 501L209 500z"/>
<path style="fill:#4c6576; stroke:none;" d="M210 500L211 501L210 500M395 500L396 501L395 500M453 500L454 501L453 500M525 500L525 504L526 504L525 500z"/>
<path style="fill:#10adea; stroke:none;" d="M207 501L208 502L207 501z"/>
<path style="fill:#4c6576; stroke:none;" d="M397 501L398 502L397 501z"/>
<path style="fill:#10adea; stroke:none;" d="M398 501L399 502L398 501z"/>
<path style="fill:#4c6576; stroke:none;" d="M455 501L456 502L455 501z"/>
<path style="fill:#10adea; stroke:none;" d="M204 502L205 503L204 502M401 502L402 503L401 502z"/>
<path style="fill:#4c6576; stroke:none;" d="M457.667 502.333L458.333 502.667L457.667 502.333M202 503L203 504L202 503M403 503L404 504L403 503M460 503L461 504L460 503z"/>
<path style="fill:#10adea; stroke:none;" d="M199 504L200 505L199 504M406 504L407 505L406 504z"/>
<path style="fill:#4c6576; stroke:none;" d="M462.667 504.333L463.333 504.667L462.667 504.333M197 505L198 506L197 505M408 505L409 506L408 505M465 505L466 506L465 505z"/>
<path style="fill:#10adea; stroke:none;" d="M194 506L195 507L194 506z"/>
<path style="fill:#4c6576; stroke:none;" d="M195 506L196 507L195 506z"/>
<path style="fill:#10adea; stroke:none;" d="M411 506L412 507L411 506z"/>
<path style="fill:#4c6576; stroke:none;" d="M468 506L469 507L468 506M526 506L526 510L527 510L526 506z"/>
<path style="fill:#10adea; stroke:none;" d="M192 507L193 508L192 507z"/>
<path style="fill:#4c6576; stroke:none;" d="M193 507L194 508L193 507M412.667 507.333L413.333 507.667L412.667 507.333M470.667 507.333L471.333 507.667L470.667 507.333z"/>
<path style="fill:#10adea; stroke:none;" d="M190 508L191 509L190 508z"/>
<path style="fill:#4c6576; stroke:none;" d="M191 508L192 509L191 508z"/>
<path style="fill:#10adea; stroke:none;" d="M416 508L417 509L416 508z"/>
<path style="fill:#4c6576; stroke:none;" d="M473.667 508.333L474.333 508.667L473.667 508.333M188 509L189 510L188 509M417 509L418 510L417 509z"/>
<path style="fill:#10adea; stroke:none;" d="M418 509L419 510L418 509z"/>
<path style="fill:#4c6576; stroke:none;" d="M476.667 509.333L477.333 509.667L476.667 509.333M186 510L187 511L186 510M420 510L421 511L420 510M480.667 510.333L481.333 510.667L480.667 510.333M184.667 511.333L185.333 511.667L184.667 511.333M422 511L423 512L422 511z"/>
<path style="fill:#10adea; stroke:none;" d="M423 511L424 512L423 511z"/>
<path style="fill:#4c6576; stroke:none;" d="M483.667 511.333L484.333 511.667L483.667 511.333M182 512L183 513L182 512z"/>
<path style="fill:#10adea; stroke:none;" d="M425 512L426 513L425 512z"/>
<path style="fill:#4c6576; stroke:none;" d="M487.667 512.333L488.333 512.667L487.667 512.333M527 512L527 516L528 516L527 512M180 513L181 514L180 513M427 513L428 514L427 513M491.667 513.333L492.333 513.667L491.667 513.333M178 514L179 515L178 514M429 514L430 515L429 514z"/>
<path style="fill:#10adea; stroke:none;" d="M430 514L431 515L430 514z"/>
<path style="fill:#4c6576; stroke:none;" d="M495 514L495 515L498 515L495 514M176 515L177 516L176 515M431 515L432 516L431 515z"/>
<path style="fill:#10adea; stroke:none;" d="M432 515L433 516L432 515z"/>
<path style="fill:#4c6576; stroke:none;" d="M500 515L500 516L503 516L500 515M174 516L175 517L174 516z"/>
<path style="fill:#10adea; stroke:none;" d="M434 516L435 517L434 516z"/>
<path style="fill:#4c6576; stroke:none;" d="M505 516L505 517L508 517L505 516z"/>
<path style="fill:#10adea; stroke:none;" d="M172 517L173 518L172 517z"/>
<path style="fill:#4c6576; stroke:none;" d="M173 517L174 518L173 517M436 517L437 518L436 517M512 517L512 518L516 518L512 517z"/>
<path style="fill:#10adea; stroke:none;" d="M170 518L171 519L170 518z"/>
<path style="fill:#4c6576; stroke:none;" d="M521 518L521 519L528 519L521 518M169 519L170 520L169 519z"/>
<path style="fill:#10adea; stroke:none;" d="M441 519L442 520L441 519M167 520L168 521L167 520M443 520L444 521L443 520M165 521L166 522L165 521M445 521L446 522L445 521M163 522L164 523L163 522M447 522L448 523L447 522z"/>
<path style="fill:#4c6576; stroke:none;" d="M162 523L163 524L162 523M449 523L450 524L449 523z"/>
<path style="fill:#10adea; stroke:none;" d="M160 524L161 525L160 524M452 524L453 525L452 524M276 525L276 526L302 526L276 525z"/>
<path style="fill:#4c6576; stroke:none;" d="M302 525L303 526L302 525M453 525L454 526L453 525z"/>
<path style="fill:#10adea; stroke:none;" d="M454 525L455 526L454 525M157 526L158 527L157 526z"/>
<path style="fill:#4c6576; stroke:none;" d="M259 526L259 527L264 527L259 526z"/>
<path style="fill:#10adea; stroke:none;" d="M264.667 526.333L265.333 526.667L264.667 526.333M312 526L312 527L316 527L312 526z"/>
<path style="fill:#4c6576; stroke:none;" d="M316 526L316 527L319 527L316 526z"/>
<path style="fill:#10adea; stroke:none;" d="M456 526L457 527L456 526z"/>
<path style="fill:#4c6576; stroke:none;" d="M156 527L157 528L156 527z"/>
<path style="fill:#10adea; stroke:none;" d="M253 527L253 528L256 528L253 527M322 527L322 528L325 528L322 527z"/>
<path style="fill:#4c6576; stroke:none;" d="M458 527L459 528L458 527z"/>
<path style="fill:#10adea; stroke:none;" d="M154 528L155 529L154 528z"/>
<path style="fill:#4c6576; stroke:none;" d="M245 528L246 529L245 528z"/>
<path style="fill:#10adea; stroke:none;" d="M246.667 528.333L247.333 528.667L246.667 528.333M330.667 528.333L331.333 528.667L330.667 528.333z"/>
<path style="fill:#4c6576; stroke:none;" d="M332 528L332 529L335 529L332 528M460 528L461 529L460 528z"/>
<path style="fill:#10adea; stroke:none;" d="M240.667 529.333L241.333 529.667L240.667 529.333M336 529L336 530L339 530L336 529M151 530L152 531L151 530z"/>
<path style="fill:#4c6576; stroke:none;" d="M233.667 530.333L234.333 530.667L233.667 530.333z"/>
<path style="fill:#10adea; stroke:none;" d="M235 530L236 531L235 530M342 530L343 531L342 530z"/>
<path style="fill:#4c6576; stroke:none;" d="M343.667 530.333L344.333 530.667L343.667 530.333z"/>
<path style="fill:#10adea; stroke:none;" d="M465 530L466 531L465 530M229.667 531.333L230.333 531.667L229.667 531.333M347.667 531.333L348.333 531.667L347.667 531.333M467 531L468 532L467 531M148 532L149 533L148 532z"/>
<path style="fill:#4c6576; stroke:none;" d="M224 532L225 533L224 532z"/>
<path style="fill:#10adea; stroke:none;" d="M225 532L226 533L225 532M352 532L353 533L352 532z"/>
<path style="fill:#4c6576; stroke:none;" d="M353 532L354 533L353 532z"/>
<path style="fill:#10adea; stroke:none;" d="M469 532L470 533L469 532z"/>
<path style="fill:#4c6576; stroke:none;" d="M220 533L221 534L220 533z"/>
<path style="fill:#10adea; stroke:none;" d="M221 533L222 534L221 533M356 533L357 534L356 533z"/>
<path style="fill:#4c6576; stroke:none;" d="M357 533L358 534L357 533M471 533L472 534L471 533z"/>
<path style="fill:#10adea; stroke:none;" d="M145 534L146 535L145 534z"/>
<path style="fill:#4c6576; stroke:none;" d="M215 534L216 535L215 534z"/>
<path style="fill:#10adea; stroke:none;" d="M216.667 534.333L217.333 534.667L216.667 534.333M360 534L361 535L360 534z"/>
<path style="fill:#4c6576; stroke:none;" d="M361 534L362 535L361 534M144 535L145 536L144 535z"/>
<path style="fill:#10adea; stroke:none;" d="M213 535L214 536L213 535M363.667 535.333L364.333 535.667L363.667 535.333z"/>
<path style="fill:#4c6576; stroke:none;" d="M365 535L366 536L365 535M475 535L476 536L475 535z"/>
<path style="fill:#10adea; stroke:none;" d="M476 535L477 536L476 535z"/>
<path style="fill:#4c6576; stroke:none;" d="M208.667 536.333L209.333 536.667L208.667 536.333z"/>
<path style="fill:#10adea; stroke:none;" d="M367 536L368 537L367 536z"/>
<path style="fill:#4c6576; stroke:none;" d="M368 536L369 537L368 536z"/>
<path style="fill:#10adea; stroke:none;" d="M478 536L479 537L478 536M141 537L142 538L141 537z"/>
<path style="fill:#4c6576; stroke:none;" d="M204.667 537.333L205.333 537.667L204.667 537.333z"/>
<path style="fill:#10adea; stroke:none;" d="M206 537L207 538L206 537M370 537L371 538L370 537z"/>
<path style="fill:#4c6576; stroke:none;" d="M371 537L372 538L371 537M480 537L481 538L480 537z"/>
<path style="fill:#10adea; stroke:none;" d="M140 538L141 539L140 538M202 538L203 539L202 538z"/>
<path style="fill:#4c6576; stroke:none;" d="M374.667 538.333L375.333 538.667L374.667 538.333M482 538L483 539L482 538M139 539L140 540L139 539z"/>
<path style="fill:#10adea; stroke:none;" d="M199 539L200 540L199 539M377 539L378 540L377 539z"/>
<path style="fill:#4c6576; stroke:none;" d="M484 539L485 540L484 539z"/>
<path style="fill:#10adea; stroke:none;" d="M485 539L486 540L485 539M196 540L197 541L196 540M380 540L381 541L380 540z"/>
<path style="fill:#4c6576; stroke:none;" d="M381 540L382 541L381 540z"/>
<path style="fill:#10adea; stroke:none;" d="M487 540L488 541L487 540M136 541L137 542L136 541z"/>
<path style="fill:#4c6576; stroke:none;" d="M192 541L193 542L192 541z"/>
<path style="fill:#10adea; stroke:none;" d="M193 541L194 542L193 541M383 541L384 542L383 541z"/>
<path style="fill:#4c6576; stroke:none;" d="M489 541L490 542L489 541z"/>
<path style="fill:#10adea; stroke:none;" d="M490 541L491 542L490 541M135 542L136 543L135 542M190 542L191 543L190 542M386 542L387 543L386 542z"/>
<path style="fill:#4c6576; stroke:none;" d="M387 542L388 543L387 542M491 542L492 543L491 542z"/>
<path style="fill:#10adea; stroke:none;" d="M492 542L493 543L492 542z"/>
<path style="fill:#4c6576; stroke:none;" d="M134 543L135 544L134 543z"/>
<path style="fill:#10adea; stroke:none;" d="M187 543L188 544L187 543z"/>
<path style="fill:#4c6576; stroke:none;" d="M389.667 543.333L390.333 543.667L389.667 543.333M493 543L494 544L493 543z"/>
<path style="fill:#10adea; stroke:none;" d="M494 543L495 544L494 543z"/>
<path style="fill:#4c6576; stroke:none;" d="M183 544L184 545L183 544z"/>
<path style="fill:#10adea; stroke:none;" d="M184 544L185 545L184 544z"/>
<path style="fill:#4c6576; stroke:none;" d="M392.667 544.333L393.333 544.667L392.667 544.333M496 544L497 545L496 544z"/>
<path style="fill:#10adea; stroke:none;" d="M497 544L498 545L497 544M131 545L132 546L131 545z"/>
<path style="fill:#4c6576; stroke:none;" d="M181 545L182 546L181 545z"/>
<path style="fill:#10adea; stroke:none;" d="M182 545L183 546L182 545M394 545L395 546L394 545z"/>
<path style="fill:#4c6576; stroke:none;" d="M395 545L396 546L395 545z"/>
<path style="fill:#10adea; stroke:none;" d="M499 545L500 546L499 545M130 546L131 547L130 546z"/>
<path style="fill:#4c6576; stroke:none;" d="M178 546L179 547L178 546z"/>
<path style="fill:#10adea; stroke:none;" d="M179 546L180 547L179 546M397 546L398 547L397 546z"/>
<path style="fill:#4c6576; stroke:none;" d="M398 546L399 547L398 546M501 546L502 547L501 546M129 547L130 548L129 547M176 547L177 548L176 547z"/>
<path style="fill:#10adea; stroke:none;" d="M504 547L505 548L504 547z"/>
<path style="fill:#4c6576; stroke:none;" d="M128 548L129 549L128 548M173 548L174 549L173 548z"/>
<path style="fill:#10adea; stroke:none;" d="M174 548L175 549L174 548M402 548L403 549L402 548z"/>
<path style="fill:#4c6576; stroke:none;" d="M403 548L404 549L403 548M506 548L507 549L506 548z"/>
<path style="fill:#10adea; stroke:none;" d="M507 548L508 549L507 548z"/>
<path style="fill:#4c6576; stroke:none;" d="M127 549L128 550L127 549z"/>
<path style="fill:#10adea; stroke:none;" d="M405 549L406 550L405 549z"/>
<path style="fill:#4c6576; stroke:none;" d="M508.667 549.333L509.333 549.667L508.667 549.333M126 550L127 551L126 550z"/>
<path style="fill:#10adea; stroke:none;" d="M169 550L170 551L169 550z"/>
<path style="fill:#4c6576; stroke:none;" d="M408 550L409 551L408 550z"/>
<path style="fill:#10adea; stroke:none;" d="M512 550L513 551L512 550z"/>
<path style="fill:#4c6576; stroke:none;" d="M125 551L126 552L125 551M166 551L167 552L166 551z"/>
<path style="fill:#10adea; stroke:none;" d="M167 551L168 552L167 551M410 551L411 552L410 551z"/>
<path style="fill:#4c6576; stroke:none;" d="M514 551L515 552L514 551z"/>
<path style="fill:#10adea; stroke:none;" d="M515 551L516 552L515 551z"/>
<path style="fill:#4c6576; stroke:none;" d="M651 554L657 552L651 554M164 552L165 553L164 552M413 552L414 553L413 552M517 552L518 553L517 552z"/>
<path style="fill:#10adea; stroke:none;" d="M122 553L123 554L122 553M162 553L163 554L162 553M415 553L416 554L415 553z"/>
<path style="fill:#4c6576; stroke:none;" d="M519 553L520 554L519 553z"/>
<path style="fill:#10adea; stroke:none;" d="M520 553L521 554L520 553M654 553L655 554L654 553M121 554L122 555L121 554M160 554L161 555L160 554z"/>
<path style="fill:#4c6576; stroke:none;" d="M418 554L419 555L418 554z"/>
<path style="fill:#10adea; stroke:none;" d="M523 554L524 555L523 554M649 554L650 555L649 554M120 555L121 556L120 555z"/>
<path style="fill:#4c6576; stroke:none;" d="M157 555L158 556L157 555z"/>
<path style="fill:#10adea; stroke:none;" d="M158 555L159 556L158 555M420 555L421 556L420 555z"/>
<path style="fill:#4c6576; stroke:none;" d="M525 555L526 556L525 555z"/>
<path style="fill:#10adea; stroke:none;" d="M526 555L527 556L526 555z"/>
<path style="fill:#4c6576; stroke:none;" d="M647 555L648 556L647 555z"/>
<path style="fill:#10adea; stroke:none;" d="M119 556L120 557L119 556z"/>
<path style="fill:#4c6576; stroke:none;" d="M155 556L156 557L155 556z"/>
<path style="fill:#10adea; stroke:none;" d="M156 556L157 557L156 556M423 556L424 557L423 556M529 556L530 557L529 556M644 556L645 557L644 556z"/>
<path style="fill:#4c6576; stroke:none;" d="M650 556L651 557L650 556z"/>
<path style="fill:#10adea; stroke:none;" d="M118 557L119 558L118 557M154 557L155 558L154 557M425 557L426 558L425 557M532 557L533 558L532 557M642 557L643 558L642 557M649 557L650 558L649 557M117 558L118 559L117 558z"/>
<path style="fill:#4c6576; stroke:none;" d="M151 558L152 559L151 558z"/>
<path style="fill:#10adea; stroke:none;" d="M428 558L429 559L428 558z"/>
<path style="fill:#4c6576; stroke:none;" d="M535 558L536 559L535 558z"/>
<path style="fill:#10adea; stroke:none;" d="M536 558L537 559L536 558M639 558L640 559L639 558M116 559L117 560L116 559z"/>
<path style="fill:#4c6576; stroke:none;" d="M149 559L150 560L149 559z"/>
<path style="fill:#10adea; stroke:none;" d="M430 559L431 560L430 559z"/>
<path style="fill:#4c6576; stroke:none;" d="M538 559L539 560L538 559z"/>
<path style="fill:#10adea; stroke:none;" d="M539 559L540 560L539 559z"/>
<path style="fill:#4c6576; stroke:none;" d="M637.667 559.333L638.333 559.667L637.667 559.333z"/>
<path style="fill:#10adea; stroke:none;" d="M646 559L647 560L646 559M115 560L116 561L115 560z"/>
<path style="fill:#4c6576; stroke:none;" d="M147 560L148 561L147 560z"/>
<path style="fill:#10adea; stroke:none;" d="M263 563C267.664 567.817 281.519 570.386 288 569C292.251 574.263 313.372 578.984 320 578L332 583L373 596L443 616L479 620L510 621L557 610L573 602C569.794 598.626 555.82 601.711 551 602.17C532.413 603.939 513.39 601.312 495 598.247C442.632 589.519 392.686 569.38 340 562.282C313.612 558.728 289.203 561.875 263 563M433 560L434 561L433 560z"/>
<path style="fill:#4c6576; stroke:none;" d="M434 560L435 561L434 560z"/>
<path style="fill:#10adea; stroke:none;" d="M543 560L544 561L543 560M633.667 560.333L634.333 560.667L633.667 560.333z"/>
<path style="fill:#4c6576; stroke:none;" d="M644 560L645 561L644 560z"/>
<path style="fill:#10adea; stroke:none;" d="M645 560L646 561L645 560M114 561L115 562L114 561z"/>
<path style="fill:#4c6576; stroke:none;" d="M145 561L146 562L145 561z"/>
<path style="fill:#10adea; stroke:none;" d="M146 561L147 562L146 561z"/>
<path style="fill:#4c6576; stroke:none;" d="M436 561L437 562L436 561M545.667 561.333L546.333 561.667L545.667 561.333z"/>
<path style="fill:#10adea; stroke:none;" d="M547 561L548 562L547 561M630 561L631 562L630 561z"/>
<path style="fill:#4c6576; stroke:none;" d="M631 561L632 562L631 561M643 561L644 562L643 561z"/>
<path style="fill:#10adea; stroke:none;" d="M113 562L114 563L113 562z"/>
<path style="fill:#4c6576; stroke:none;" d="M143 562L144 563L143 562z"/>
<path style="fill:#10adea; stroke:none;" d="M144 562L145 563L144 562M438 562L439 563L438 562z"/>
<path style="fill:#4c6576; stroke:none;" d="M439 562L440 563L439 562M550 562L551 563L550 562z"/>
<path style="fill:#10adea; stroke:none;" d="M551 562L552 563L551 562M627 562L628 563L627 562z"/>
<path style="fill:#4c6576; stroke:none;" d="M628 562L629 563L628 562z"/>
<path style="fill:#10adea; stroke:none;" d="M642 562L643 563L642 562M112 563L113 564L112 563M142 563L143 564L142 563M441 563L442 564L441 563z"/>
<path style="fill:#4c6576; stroke:none;" d="M553 563L553 564L556 564L553 563z"/>
<path style="fill:#10adea; stroke:none;" d="M556 563L557 564L556 563M623 563L624 564L623 563M111 564L112 565L111 564M140 564L141 565L140 564z"/>
<path style="fill:#4c6576; stroke:none;" d="M261 564L261 565L264 565L261 564z"/>
<path style="fill:#10adea; stroke:none;" d="M443 564L444 565L443 564z"/>
<path style="fill:#4c6576; stroke:none;" d="M444 564L445 565L444 564z"/>
<path style="fill:#10adea; stroke:none;" d="M560.667 564.333L561.333 564.667L560.667 564.333M618.667 564.333L619.333 564.667L618.667 564.333z"/>
<path style="fill:#4c6576; stroke:none;" d="M639 564L640 565L639 564M111 565L112 566L111 565z"/>
<path style="fill:#10adea; stroke:none;" d="M138 565L139 566L138 565M446 565L447 566L446 565M566 565L566 566L569 566L566 565M612.667 565.333L613.333 565.667L612.667 565.333z"/>
<path style="fill:#4c6576; stroke:none;" d="M614.667 565.333L615.333 565.667L614.667 565.333M637 565L638 566L637 565z"/>
<path style="fill:#10adea; stroke:none;" d="M638 565L639 566L638 565z"/>
<path style="fill:#4c6576; stroke:none;" d="M136 566L137 567L136 566z"/>
<path style="fill:#10adea; stroke:none;" d="M449 566L450 567L449 566M574 566L574 567L578 567L574 566M604.667 566.333L605.333 566.667L604.667 566.333z"/>
<path style="fill:#4c6576; stroke:none;" d="M606 566L607 567L606 566z"/>
<path style="fill:#10adea; stroke:none;" d="M607 566L608 567L607 566z"/>
<path style="fill:#4c6576; stroke:none;" d="M636 566L637 567L636 566M109 567L110 568L109 567M134 567L135 568L134 567z"/>
<path style="fill:#10adea; stroke:none;" d="M452 567L453 568L452 567z"/>
<path style="fill:#4c6576; stroke:none;" d="M586 567L587 568L586 567M588 567L588 568L592 568L588 567z"/>
<path style="fill:#10adea; stroke:none;" d="M635 567L636 568L635 567M133 568L134 569L133 568M454 568L455 569L454 568z"/>
<path style="fill:#4c6576; stroke:none;" d="M455 568L456 569L455 568M633 568L634 569L633 568M107 569L108 570L107 569z"/>
<path style="fill:#10adea; stroke:none;" d="M131 569L132 570L131 569z"/>
<path style="fill:#1276bb; stroke:none;" d="M287 569L288 570L287 569z"/>
<path style="fill:#10adea; stroke:none;" d="M457 569L458 570L457 569M632 569L633 570L632 569z"/>
<path style="fill:#4c6576; stroke:none;" d="M106 570L107 571L106 570z"/>
<path style="fill:#10adea; stroke:none;" d="M129 570L130 571L129 570M460 570L461 571L460 570z"/>
<path style="fill:#4c6576; stroke:none;" d="M630 570L631 571L630 570M105 571L106 572L105 571z"/>
<path style="fill:#10adea; stroke:none;" d="M463 571L464 572L463 571M629 571L630 572L629 571M104 572L105 573L104 572M126 572L127 573L126 572M466 572L467 573L466 572z"/>
<path style="fill:#4c6576; stroke:none;" d="M467 572L468 573L467 572M627 572L628 573L627 572z"/>
<path style="fill:#10adea; stroke:none;" d="M103 573L104 574L103 573M124 573L125 574L124 573M469 573L470 574L469 573M626 573L627 574L626 573z"/>
<path style="fill:#4c6576; stroke:none;" d="M122 574L123 575L122 574z"/>
<path style="fill:#10adea; stroke:none;" d="M472.667 574.333L473.333 574.667L472.667 574.333z"/>
<path style="fill:#4c6576; stroke:none;" d="M624 574L625 575L624 574M120 575L121 576L120 575z"/>
<path style="fill:#10adea; stroke:none;" d="M121 575L122 576L121 575M475.667 575.333L476.333 575.667L475.667 575.333M623 575L624 576L623 575z"/>
<path style="fill:#4c6576; stroke:none;" d="M101 576L102 577L101 576M119 576L120 577L119 576z"/>
<path style="fill:#10adea; stroke:none;" d="M479 576L480 577L479 576z"/>
<path style="fill:#4c6576; stroke:none;" d="M621 576L622 577L621 576M100 577L101 578L100 577z"/>
<path style="fill:#10adea; stroke:none;" d="M482 577L483 578L482 577z"/>
<path style="fill:#4c6576; stroke:none;" d="M483 577L484 578L483 577M619 577L620 578L619 577z"/>
<path style="fill:#10adea; stroke:none;" d="M99 578L100 579L99 578M116 578L117 579L116 578z"/>
<path style="fill:#1276bb; stroke:none;" d="M319 578L320 579L319 578z"/>
<path style="fill:#10adea; stroke:none;" d="M485 578L486 579L485 578z"/>
<path style="fill:#4c6576; stroke:none;" d="M486 578L487 579L486 578M617 578L618 579L617 578z"/>
<path style="fill:#10adea; stroke:none;" d="M618 578L619 579L618 578z"/>
<path style="fill:#4c6576; stroke:none;" d="M114 579L115 580L114 579z"/>
<path style="fill:#10adea; stroke:none;" d="M489 579L490 580L489 579z"/>
<path style="fill:#4c6576; stroke:none;" d="M490 579L491 580L490 579z"/>
<path style="fill:#10adea; stroke:none;" d="M616 579L617 580L616 579M113 580L114 581L113 580M493 580L494 581L493 580z"/>
<path style="fill:#4c6576; stroke:none;" d="M494 580L495 581L494 580z"/>
<path style="fill:#10adea; stroke:none;" d="M614 580L615 581L614 580z"/>
<path style="fill:#4c6576; stroke:none;" d="M97 581L98 582L97 581M111 581L112 582L111 581z"/>
<path style="fill:#10adea; stroke:none;" d="M496.667 581.333L497.333 581.667L496.667 581.333M612 581L613 582L612 581M96 582L97 583L96 582z"/>
<path style="fill:#4c6576; stroke:none;" d="M109 582L110 583L109 582z"/>
<path style="fill:#10adea; stroke:none;" d="M110 582L111 583L110 582M500 582L501 583L500 582z"/>
<path style="fill:#4c6576; stroke:none;" d="M501.667 582.333L502.333 582.667L501.667 582.333M609 582L610 583L609 582z"/>
<path style="fill:#10adea; stroke:none;" d="M95 583L96 584L95 583z"/>
<path style="fill:#4c6576; stroke:none;" d="M108 583L109 584L108 583z"/>
<path style="fill:#10adea; stroke:none;" d="M504.667 583.333L505.333 583.667L504.667 583.333M606.667 583.333L607.333 583.667L606.667 583.333M107 584L108 585L107 584M509 584L510 585L509 584z"/>
<path style="fill:#4c6576; stroke:none;" d="M510.667 584.333L511.333 584.667L510.667 584.333M602.667 584.333L603.333 584.667L602.667 584.333z"/>
<path style="fill:#10adea; stroke:none;" d="M513.667 585.333L514.333 585.667L513.667 585.333z"/>
<path style="fill:#4c6576; stroke:none;" d="M599 585L600 586L599 585z"/>
<path style="fill:#10adea; stroke:none;" d="M600 585L601 586L600 585z"/>
<path style="fill:#4c6576; stroke:none;" d="M93 586L92 589L93 586z"/>
<path style="fill:#10adea; stroke:none;" d="M104 586L105 587L104 586M518.667 586.333L519.333 586.667L518.667 586.333z"/>
<path style="fill:#4c6576; stroke:none;" d="M520 586L521 587L520 586z"/>
<path style="fill:#10adea; stroke:none;" d="M596.667 586.333L597.333 586.667L596.667 586.333M92 587L93 588L92 587z"/>
<path style="fill:#4c6576; stroke:none;" d="M102 587L103 588L102 587z"/>
<path style="fill:#10adea; stroke:none;" d="M523 587L523 588L526 588L523 587M592 587L593 588L592 587M101 588L102 589L101 588M530.667 588.333L531.333 588.667L530.667 588.333z"/>
<path style="fill:#4c6576; stroke:none;" d="M532 588L532 589L536 589L532 588M584 588L584 589L587 589L584 588z"/>
<path style="fill:#10adea; stroke:none;" d="M587 588L588 589L587 588M100 589L101 590L100 589M538 589L538 590L541 590L538 589M579 589L579 590L582 590L579 589M90 590L91 591L90 590z"/>
<path style="fill:#4c6576; stroke:none;" d="M98 590L99 591L98 590z"/>
<path style="fill:#10adea; stroke:none;" d="M549 590L549 591L555 591L549 590z"/>
<path style="fill:#4c6576; stroke:none;" d="M555 590L555 591L566 591L555 590z"/>
<path style="fill:#10adea; stroke:none;" d="M566 590L566 591L571 591L566 590M97 591L98 592L97 591z"/>
<path style="fill:#4c6576; stroke:none;" d="M89 592L90 593L89 592M95 592L96 593L95 592z"/>
<path style="fill:#10adea; stroke:none;" d="M88 593L89 594L88 593z"/>
<path style="fill:#4c6576; stroke:none;" d="M94 593L95 594L94 593z"/>
<path style="fill:#10adea; stroke:none;" d="M93 594L94 595L93 594z"/>
<path style="fill:#4c6576; stroke:none;" d="M87 595L88 596L87 595M86 596L83 602C85.8029 600.398 87.5197 599.154 86 596z"/>
<path style="fill:#10adea; stroke:none;" d="M90 596L91 597L90 596M89 597L90 598L89 597M84 599L85 600L84 599z"/>
<path style="fill:#4c6576; stroke:none;" d="M573 600L574 601L573 600z"/>
<path style="fill:#10adea; stroke:none;" d="M574 600L575 601L574 600M84 601L85 602L84 601z"/>
<path style="fill:#1276bb; stroke:none;" d="M571 601L572 602L571 601M569 602L570 603L569 602z"/>
</svg>
